<svg width="23" height="25" viewBox="0 0 23 25" fill="none" xmlns="http://www.w3.org/2000/svg">
<path d="M7.58576 -0.00471306C7.44822 0.00835705 7.34739 0.0270281 7.2447 0.0587692C6.79472 0.197559 6.39204 0.539244 6.09143 1.03777C6.02484 1.14793 5.91717 1.36451 5.86862 1.48775C5.75411 1.77528 5.67071 2.10265 5.63212 2.41197C5.60723 2.61051 5.60536 2.65781 5.60225 3.06671L5.59914 3.47624H4.34442C3.52973 3.47624 3.06295 3.47873 3.01441 3.48308C2.7779 3.503 2.55509 3.59449 2.36402 3.74822C2.30303 3.79738 2.19038 3.91439 2.14246 3.97787C2.00616 4.15898 1.90533 4.39237 1.86923 4.61021C1.86426 4.64195 1.85803 4.67742 1.85617 4.688L1.85305 4.70854H1.29354H0.733398V5.35892V6.00931H11.3854H22.0373V5.35892V4.70854H21.2936H20.5505L20.5467 4.688C20.5449 4.67742 20.5405 4.64817 20.5368 4.62452C20.5044 4.40482 20.403 4.16832 20.2598 3.976C20.2144 3.91501 20.1011 3.79801 20.0395 3.74822C19.8484 3.59387 19.6231 3.50175 19.3879 3.48246C19.3431 3.47873 18.8016 3.47624 17.9969 3.47624H16.6787V3.11277C16.6787 2.91236 16.6756 2.70636 16.6725 2.65346C16.6214 1.90474 16.3774 1.23506 15.9704 0.72409C15.8907 0.623887 15.7233 0.455223 15.63 0.380538C15.3736 0.175776 15.109 0.0569024 14.796 0.00462246C14.7387 -0.00471306 14.4643 -0.0059576 11.1706 -0.00657988C9.21078 -0.00657988 7.59759 -0.0059576 7.58576 -0.00471306ZM14.6429 1.72114C14.7568 1.73296 14.8588 1.7703 14.9603 1.83752C15.0281 1.88233 15.1433 1.99747 15.1993 2.07589C15.2883 2.20099 15.3736 2.40077 15.4115 2.57379C15.4439 2.71943 15.4476 2.77606 15.4507 3.13829L15.4538 3.47624H11.1426H6.83206L6.83455 3.11339C6.83704 2.73001 6.83891 2.70511 6.87065 2.56757C6.98081 2.09207 7.27893 1.75848 7.62746 1.72176C7.70214 1.71367 14.5663 1.71367 14.6429 1.72114Z" fill="white"/>
<path d="M0.733398 7.20739V7.58393H0.764517H0.795636V7.88889V8.19386L1.30412 8.1951L1.81322 8.19697L1.84185 8.38368C1.85803 8.48637 1.88666 8.66998 1.90596 8.79134C2.14246 10.3037 2.27689 11.1632 2.30179 11.3244C2.31859 11.4321 2.3995 11.9505 2.48165 12.4758C2.75986 14.2558 3.05362 16.1323 3.31253 17.7909C3.45443 18.6996 3.63118 19.8298 3.70524 20.3022C4.0071 22.2322 4.26476 23.8821 4.29961 24.1068C4.32015 24.2375 4.34131 24.3707 4.34629 24.4024C4.35127 24.4341 4.35563 24.4615 4.35563 24.464C4.35563 24.4671 7.4756 24.469 11.2889 24.469C15.1022 24.469 18.2222 24.4677 18.2222 24.4665C18.2222 24.464 18.2564 24.2561 18.3684 23.5728C18.3939 23.4172 18.4556 23.0419 18.5054 22.7388C18.6466 21.8762 18.6653 21.7629 18.7443 21.2824C18.8589 20.586 19.0132 19.6462 19.1433 18.852C19.2086 18.455 19.2995 17.9004 19.3456 17.6197C19.3916 17.3391 19.4831 16.7845 19.5478 16.3874C19.6132 15.9904 19.704 15.4358 19.7501 15.1551C19.7962 14.8744 19.8758 14.3896 19.9269 14.0784C19.9779 13.7666 20.0731 13.1872 20.1385 12.7901C20.2038 12.393 20.2891 11.8721 20.3283 11.6325C20.4814 10.6989 20.5026 10.5695 20.5567 10.2415C20.5872 10.0548 20.6376 9.7498 20.6681 9.56309C20.7976 8.77142 20.8803 8.26979 20.8866 8.23307L20.8934 8.19386H21.4654H22.0373V7.51236V6.83085H11.3854H0.733398V7.20739ZM7.39967 8.61085C7.67289 8.63761 7.91811 8.76769 8.10607 8.98614C8.18386 9.07701 8.23179 9.14983 8.28593 9.26123C8.34942 9.39131 8.38053 9.48715 8.40916 9.64088L8.42286 9.71557L8.42472 15.401C8.42597 19.4744 8.42472 21.1057 8.41974 21.1548C8.3936 21.4162 8.29029 21.6758 8.1347 21.8681C8.07619 21.9409 7.96168 22.0467 7.88886 22.0965C7.76189 22.183 7.61999 22.2415 7.47747 22.2658C7.37415 22.2832 7.16379 22.2838 7.06172 22.2664C6.71506 22.2067 6.41258 21.9646 6.24516 21.6123C6.18915 21.494 6.15305 21.3758 6.12504 21.2196C6.11509 21.1648 6.11446 20.7851 6.1126 15.5037C6.11073 11.5441 6.11197 9.82137 6.11695 9.76411C6.13625 9.52699 6.20906 9.30729 6.33105 9.1212C6.48104 8.89279 6.69203 8.72723 6.9304 8.65193C7.06359 8.61023 7.23661 8.59467 7.39967 8.61085ZM11.4756 8.61085C11.6561 8.62952 11.831 8.69487 11.9729 8.79632C12.0924 8.88096 12.225 9.02473 12.304 9.15294C12.4079 9.32409 12.4789 9.54441 12.4963 9.75291C12.5013 9.81079 12.5025 11.4452 12.5013 15.4943C12.4994 20.8013 12.4982 21.1586 12.4882 21.2189C12.4453 21.4779 12.3457 21.705 12.1963 21.883C12.0214 22.0921 11.798 22.2241 11.5478 22.267C11.4812 22.2782 11.4545 22.2795 11.3138 22.2764C11.1719 22.2739 11.1482 22.272 11.0897 22.2577C10.9989 22.2359 10.9553 22.2203 10.8675 22.1786C10.7412 22.1183 10.6503 22.0517 10.5445 21.9409C10.3522 21.7386 10.2315 21.4741 10.1966 21.1779C10.1885 21.1088 10.1873 20.4049 10.1873 15.447C10.1873 11.564 10.1892 9.77469 10.1935 9.7305C10.2427 9.2463 10.5389 8.8293 10.946 8.67246C11.0126 8.64695 11.1327 8.6177 11.1987 8.61147C11.2783 8.604 11.4065 8.604 11.4756 8.61085ZM15.6455 8.61085C15.971 8.64446 16.2573 8.82619 16.4496 9.1212C16.5461 9.26808 16.6059 9.41994 16.6494 9.62843L16.6625 9.69067L16.6644 15.4041C16.6662 20.6445 16.6656 21.1243 16.6563 21.1984C16.5965 21.6783 16.2847 22.0878 15.8715 22.2278C15.7607 22.2658 15.7121 22.2733 15.5503 22.2764C15.3829 22.2801 15.3225 22.2745 15.2148 22.2465C14.8041 22.1388 14.478 21.766 14.3821 21.2955C14.3759 21.2625 14.3665 21.209 14.3622 21.1766C14.3504 21.0882 14.3504 9.8083 14.3622 9.71246C14.374 9.62159 14.3977 9.51018 14.4226 9.43612C14.5732 8.97743 14.941 8.65628 15.3692 8.61147C15.4395 8.604 15.5764 8.604 15.6455 8.61085Z" fill="white"/>
</svg>
