<svg width="32" height="29" viewBox="0 0 32 29" fill="none" xmlns="http://www.w3.org/2000/svg">
<path fill-rule="evenodd" clip-rule="evenodd" d="M15.9276 24.5069L9.52605 27.743C8.17779 28.4246 6.51019 27.9262 5.80137 26.6297C5.51911 26.1135 5.42171 25.5221 5.52425 24.9473L6.74683 18.093L1.56789 13.2388C0.477121 12.2164 0.454802 10.5374 1.51804 9.48851C1.94142 9.07085 2.49619 8.79905 3.09644 8.71518L10.2536 7.71516L13.4543 1.47894C14.1285 0.165499 15.7823 -0.37377 17.1482 0.274454C17.6921 0.53258 18.1324 0.955923 18.4008 1.47894L21.6016 7.71516L28.7587 8.71518C30.2661 8.9258 31.3105 10.2716 31.0915 11.721C31.0043 12.2982 30.7216 12.8317 30.2873 13.2388L25.1083 18.093L26.3309 24.9473C26.5884 26.3909 25.5801 27.7619 24.0788 28.0095C23.4809 28.1081 22.866 28.0144 22.3291 27.743L15.9276 24.5069Z" fill="#EBD8B8"/>
</svg>
